<svg width="60" height="17" viewBox="0 0 60 17" fill="none" xmlns="http://www.w3.org/2000/svg">
<path d="M8.92789 16.296V9.576H9.19189C8.93589 10.36 8.44389 10.996 7.71589 11.484C6.98789 11.972 6.13589 12.216 5.15989 12.216C4.13589 12.216 3.23589 11.968 2.45989 11.472C1.68389 10.976 1.07989 10.268 0.647891 9.348C0.215891 8.428 -0.000109404 7.344 -0.000109404 6.096C-0.000109404 4.832 0.215891 3.748 0.647891 2.844C1.07989 1.94 1.68389 1.24 2.45989 0.744C3.23589 0.248 4.13589 -4.76837e-07 5.15989 -4.76837e-07C6.15189 -4.76837e-07 7.01589 0.248 7.75189 0.744C8.48789 1.24 8.97589 1.896 9.21589 2.712H8.99989V0.24H11.9279V16.296H8.92789ZM5.99989 9.936C6.89589 9.936 7.61589 9.612 8.15989 8.964C8.70389 8.316 8.97589 7.36 8.97589 6.096C8.97589 4.816 8.70389 3.86 8.15989 3.228C7.61589 2.596 6.89589 2.28 5.99989 2.28C5.10389 2.28 4.38389 2.596 3.83989 3.228C3.29589 3.86 3.02389 4.816 3.02389 6.096C3.02389 7.36 3.29589 8.316 3.83989 8.964C4.38389 9.612 5.10389 9.936 5.99989 9.936ZM19.1999 12.216C17.9819 12.216 16.9254 11.968 16.0304 11.472C15.1354 10.976 14.4399 10.2681 13.9439 9.34836C13.4479 8.42861 13.1999 7.34461 13.1999 6.09636C13.1999 4.84812 13.4479 3.768 13.9439 2.856C14.4399 1.944 15.1354 1.24 16.0304 0.744C16.9254 0.248 17.9819 -4.76837e-07 19.1999 -4.76837e-07C20.4179 -4.76837e-07 21.4743 0.248 22.3694 0.744C23.2644 1.24 23.9599 1.94553 24.4559 2.86059C24.9519 3.77566 25.1999 4.85413 25.1999 6.096C25.1999 7.34434 24.9519 8.42843 24.4559 9.34826C23.9599 10.2681 23.2644 10.976 22.3694 11.472C21.4743 11.968 20.4179 12.216 19.1999 12.216ZM19.1914 9.936C20.0931 9.936 20.8159 9.612 21.3599 8.964C21.9039 8.316 22.1759 7.356 22.1759 6.084C22.1759 4.812 21.9039 3.86 21.3599 3.228C20.8159 2.596 20.0931 2.28 19.1914 2.28C18.3011 2.28 17.5839 2.596 17.0399 3.228C16.4959 3.86 16.2239 4.812 16.2239 6.084C16.2239 7.356 16.4959 8.316 17.0399 8.964C17.5839 9.612 18.3011 9.936 19.1914 9.936ZM25.8959 11.976V10.032L32.5199 1.776V2.496H25.8959V0.24H35.2079V2.184L28.5119 10.512V9.72H35.4719V11.976H25.8959ZM41.5679 12.216C40.3499 12.216 39.2934 11.968 38.3984 11.472C37.5034 10.976 36.8079 10.2681 36.3119 9.34836C35.8159 8.42861 35.5679 7.34461 35.5679 6.09636C35.5679 4.84812 35.8159 3.768 36.3119 2.856C36.8079 1.944 37.5034 1.24 38.3984 0.744C39.2934 0.248 40.3499 -4.76837e-07 41.5679 -4.76837e-07C42.7859 -4.76837e-07 43.8423 0.248 44.7374 0.744C45.6324 1.24 46.3279 1.94553 46.8239 2.86059C47.3199 3.77566 47.5679 4.85413 47.5679 6.096C47.5679 7.34434 47.3199 8.42843 46.8239 9.34826C46.3279 10.2681 45.6324 10.976 44.7374 11.472C43.8423 11.968 42.7859 12.216 41.5679 12.216ZM41.5594 9.936C42.4611 9.936 43.1839 9.612 43.7279 8.964C44.2719 8.316 44.5439 7.356 44.5439 6.084C44.5439 4.812 44.2719 3.86 43.7279 3.228C43.1839 2.596 42.4611 2.28 41.5594 2.28C40.6691 2.28 39.9519 2.596 39.4079 3.228C38.8639 3.86 38.5919 4.812 38.5919 6.084C38.5919 7.356 38.8639 8.316 39.4079 8.964C39.9519 9.612 40.6691 9.936 41.5594 9.936ZM48.8399 11.976V0.24H51.7679V2.592H51.5039C51.8559 1.744 52.4039 1.1 53.1479 0.66C53.8919 0.22 54.7359 -4.76837e-07 55.6799 -4.76837e-07C56.6239 -4.76837e-07 57.4012 0.174782 58.0119 0.524348C58.6225 0.873913 59.0785 1.407 59.3799 2.12361C59.6812 2.84022 59.8319 3.74035 59.8319 4.824V11.976H56.8319V4.968C56.8319 4.36 56.7559 3.864 56.6039 3.48C56.4519 3.096 56.2199 2.812 55.9079 2.628C55.5959 2.444 55.1999 2.352 54.7199 2.352C54.1439 2.352 53.6385 2.47584 53.2037 2.72352C52.7688 2.9712 52.4328 3.32256 52.1957 3.7776C51.9585 4.23264 51.8399 4.76544 51.8399 5.376V11.976H48.8399Z" fill="#B7102A"/>
</svg>
