<svg width="160" height="160" viewBox="0 0 160 160" fill="none" xmlns="http://www.w3.org/2000/svg">
  <rect width="160" height="160" rx="40" fill="#FFF1F2"/>
  <circle cx="80" cy="68" r="31" fill="#FB7185"/>
  <path d="M43 132c5.6-22.8 20.1-34.2 37-34.2S111.4 109.2 117 132H43Z" fill="#BE123C"/>
  <path d="M51 58c2.5-17.5 14.6-29 29-29s26.5 11.5 29 29H51Z" fill="white"/>
  <path d="M53 59c2.9-13.1 13.8-22.9 27-22.9s24.1 9.8 27 22.9" stroke="#881337" stroke-width="6" stroke-linecap="round"/>
  <circle cx="69" cy="69" r="4" fill="#881337"/>
  <circle cx="91" cy="69" r="4" fill="#881337"/>
  <path d="M70 84c6.8 5.6 13.2 5.6 20 0" stroke="white" stroke-width="5" stroke-linecap="round"/>
  <path d="M110 44c8.5 5.4 13.9 14.9 13.9 25.8 0 6.4-1.9 12.3-5.1 17.3" stroke="#F43F5E" stroke-width="7" stroke-linecap="round"/>
  <path d="M50 44C41.5 49.4 36.1 58.9 36.1 69.8c0 6.4 1.9 12.3 5.1 17.3" stroke="#F43F5E" stroke-width="7" stroke-linecap="round"/>
</svg>
