<svg width="24" height="24" viewBox="0 0 24 24" fill="none" xmlns="http://www.w3.org/2000/svg">
  <path d="M7.2 3.7c.7 0 1.3.6 1.3 1.3v13.8a1.5 1.5 0 0 1-3 0V14h-.2A2.3 2.3 0 0 1 3 11.7V6.2a2.5 2.5 0 0 1 2.5-2.5h1.7Zm8.1.1v6.1h1.2V3.8h1.8v6.1h1.2V3.8h1.8v6.7a3.1 3.1 0 0 1-2.6 3.05v5.25a1.5 1.5 0 0 1-3 0v-5.25a3.1 3.1 0 0 1-2.6-3.05V3.8h2.2Z" fill="url(#g)"/>
  <defs><linearGradient id="g" x1="3" y1="3" x2="22" y2="21" gradientUnits="userSpaceOnUse"><stop stop-color="#fda4af"/><stop offset="1" stop-color="#e11d48"/></linearGradient></defs>
</svg>
